<svg width="960" height="132" viewBox="0 0 240 33" fill="none" xmlns="http://www.w3.org/2000/svg">
<path d="M20.2032 9.4508V26H16.172V16.0752L12.4708 26H9.21757L5.49282 16.0516V26H1.46161V9.4508H6.22363L10.8678 20.9079L15.4648 9.4508H20.2032ZM25.1295 11.4782C24.4223 11.4782 23.8408 11.2739 23.385 10.8653C22.945 10.4409 22.7249 9.92229 22.7249 9.30936C22.7249 8.68071 22.945 8.16207 23.385 7.75345C23.8408 7.32911 24.4223 7.11694 25.1295 7.11694C25.821 7.11694 26.3868 7.32911 26.8269 7.75345C27.2826 8.16207 27.5105 8.68071 27.5105 9.30936C27.5105 9.92229 27.2826 10.4409 26.8269 10.8653C26.3868 11.2739 25.821 11.4782 25.1295 11.4782ZM27.1333 12.8455V26H23.1021V12.8455H27.1333ZM38.07 12.7041C39.6102 12.7041 40.8361 13.207 41.7476 14.2128C42.6749 15.2029 43.1385 16.5703 43.1385 18.3148V26H39.1308V18.857C39.1308 17.9769 38.903 17.2932 38.4472 16.806C37.9914 16.3188 37.3785 16.0752 36.6084 16.0752C35.8383 16.0752 35.2254 16.3188 34.7696 16.806C34.3138 17.2932 34.0859 17.9769 34.0859 18.857V26H30.0547V12.8455H34.0859V14.59C34.4946 14.0085 35.0446 13.5527 35.7361 13.2227C36.4277 12.8769 37.2056 12.7041 38.07 12.7041ZM74.9497 15.0379C75.4212 14.315 76.0105 13.7492 76.7178 13.3406C77.425 12.9162 78.2108 12.7041 79.0752 12.7041V16.971H77.9672C76.9614 16.971 76.207 17.191 75.7041 17.6311C75.2011 18.0554 74.9497 18.8098 74.9497 19.8942V26H70.9185V12.8455H74.9497V15.0379ZM85.3141 17.7018C85.3141 16.0673 85.6677 14.6136 86.375 13.3406C87.0822 12.0518 88.0645 11.0539 89.3218 10.3466C90.5948 9.62368 92.0328 9.26221 93.6359 9.26221C95.6004 9.26221 97.282 9.78084 98.6808 10.8181C100.08 11.8554 101.015 13.2698 101.486 15.0615H97.0541C96.7241 14.37 96.2526 13.8435 95.6397 13.482C95.0425 13.1205 94.3588 12.9398 93.5887 12.9398C92.3471 12.9398 91.3413 13.372 90.5712 14.2364C89.8011 15.1008 89.4161 16.2559 89.4161 17.7018C89.4161 19.1477 89.8011 20.3029 90.5712 21.1673C91.3413 22.0317 92.3471 22.4638 93.5887 22.4638C94.3588 22.4638 95.0425 22.2831 95.6397 21.9216C96.2526 21.5602 96.7241 21.0337 97.0541 20.3422H101.486C101.015 22.1338 100.08 23.5483 98.6808 24.5855C97.282 25.6071 95.6004 26.1179 93.6359 26.1179C92.0328 26.1179 90.5948 25.7643 89.3218 25.057C88.0645 24.3341 87.0822 23.3361 86.375 22.0631C85.6677 20.7901 85.3141 19.3363 85.3141 17.7018ZM105.982 11.4782C105.275 11.4782 104.693 11.2739 104.238 10.8653C103.798 10.4409 103.578 9.92229 103.578 9.30936C103.578 8.68071 103.798 8.16207 104.238 7.75345C104.693 7.32911 105.275 7.11694 105.982 7.11694C106.674 7.11694 107.239 7.32911 107.68 7.75345C108.135 8.16207 108.363 8.68071 108.363 9.30936C108.363 9.92229 108.135 10.4409 107.68 10.8653C107.239 11.2739 106.674 11.4782 105.982 11.4782ZM107.986 12.8455V26H103.955V12.8455H107.986ZM118.923 12.7041C120.463 12.7041 121.689 13.207 122.6 14.2128C123.528 15.2029 123.991 16.5703 123.991 18.3148V26H119.984V18.857C119.984 17.9769 119.756 17.2932 119.3 16.806C118.844 16.3188 118.231 16.0752 117.461 16.0752C116.691 16.0752 116.078 16.3188 115.622 16.806C115.166 17.2932 114.939 17.9769 114.939 18.857V26H110.907V12.8455H114.939V14.59C115.347 14.0085 115.897 13.5527 116.589 13.2227C117.28 12.8769 118.058 12.7041 118.923 12.7041ZM139.193 19.2106C139.193 19.5878 139.169 19.9807 139.122 20.3893H129.999C130.061 21.2065 130.321 21.8352 130.777 22.2753C131.248 22.6996 131.822 22.9118 132.497 22.9118C133.503 22.9118 134.203 22.4874 134.596 21.6387H138.886C138.666 22.5031 138.265 23.2811 137.684 23.9726C137.118 24.6641 136.403 25.2063 135.539 25.5992C134.674 25.9921 133.708 26.1886 132.639 26.1886C131.35 26.1886 130.203 25.9136 129.197 25.3635C128.191 24.8134 127.405 24.0276 126.84 23.0061C126.274 21.9845 125.991 20.7901 125.991 19.4228C125.991 18.0554 126.266 16.861 126.816 15.8395C127.382 14.8179 128.168 14.0321 129.173 13.482C130.179 12.9319 131.334 12.6569 132.639 12.6569C133.912 12.6569 135.043 12.9241 136.034 13.4584C137.024 13.9928 137.794 14.755 138.344 15.7452C138.91 16.7353 139.193 17.8904 139.193 19.2106ZM135.067 18.1497C135.067 17.4582 134.831 16.9082 134.36 16.4995C133.888 16.0909 133.299 15.8866 132.592 15.8866C131.916 15.8866 131.342 16.0831 130.871 16.476C130.415 16.8689 130.132 17.4268 130.022 18.1497H135.067ZM145.35 14.7079C145.743 14.095 146.286 13.5999 146.977 13.2227C147.669 12.8455 148.478 12.6569 149.405 12.6569C150.49 12.6569 151.472 12.9319 152.352 13.482C153.232 14.0321 153.924 14.8179 154.427 15.8395C154.945 16.861 155.205 18.0476 155.205 19.3992C155.205 20.7508 154.945 21.9452 154.427 22.9825C153.924 24.004 153.232 24.7977 152.352 25.3635C151.472 25.9136 150.49 26.1886 149.405 26.1886C148.494 26.1886 147.684 26 146.977 25.6228C146.286 25.2456 145.743 24.7584 145.35 24.1612V32.2708H141.319V12.8455H145.35V14.7079ZM151.103 19.3992C151.103 18.3933 150.82 17.6075 150.254 17.0417C149.704 16.4602 149.02 16.1695 148.203 16.1695C147.401 16.1695 146.718 16.4602 146.152 17.0417C145.602 17.6232 145.327 18.4169 145.327 19.4228C145.327 20.4286 145.602 21.2223 146.152 21.8038C146.718 22.3853 147.401 22.676 148.203 22.676C149.004 22.676 149.688 22.3853 150.254 21.8038C150.82 21.2065 151.103 20.405 151.103 19.3992ZM161.351 8.55498V26H157.319V8.55498H161.351ZM176.672 19.2106C176.672 19.5878 176.649 19.9807 176.601 20.3893H167.478C167.541 21.2065 167.8 21.8352 168.256 22.2753C168.728 22.6996 169.301 22.9118 169.977 22.9118C170.983 22.9118 171.682 22.4874 172.075 21.6387H176.366C176.146 22.5031 175.745 23.2811 175.163 23.9726C174.598 24.6641 173.882 25.2063 173.018 25.5992C172.154 25.9921 171.187 26.1886 170.118 26.1886C168.83 26.1886 167.682 25.9136 166.677 25.3635C165.671 24.8134 164.885 24.0276 164.319 23.0061C163.753 21.9845 163.47 20.7901 163.47 19.4228C163.47 18.0554 163.745 16.861 164.296 15.8395C164.861 14.8179 165.647 14.0321 166.653 13.482C167.659 12.9319 168.814 12.6569 170.118 12.6569C171.391 12.6569 172.523 12.9241 173.513 13.4584C174.503 13.9928 175.273 14.755 175.823 15.7452C176.389 16.7353 176.672 17.8904 176.672 19.2106ZM172.547 18.1497C172.547 17.4582 172.311 16.9082 171.839 16.4995C171.368 16.0909 170.779 15.8866 170.071 15.8866C169.395 15.8866 168.822 16.0831 168.35 16.476C167.895 16.8689 167.612 17.4268 167.502 18.1497H172.547ZM186.578 26L184.056 22.346L181.934 26H177.573L181.911 19.2813L177.455 12.8455H181.981L184.504 16.476L186.625 12.8455H190.987L186.578 19.4699L191.105 26H186.578Z" fill="white"/>
<rect x="46.6576" y="8.69775" width="19.9727" height="20.1846" rx="2.42035" fill="#FF0000"/>
<rect width="12.3848" height="12.3583" rx="1.15571" transform="matrix(-0.49197 0.870612 -0.869602 -0.493754 65.0626 16.5337)" fill="#333333"/>
</svg>
